<?xml version="1.0" standalone="no"?>
<!DOCTYPE svg PUBLIC "-//W3C//DTD SVG 20010904//EN"
 "http://www.w3.org/TR/2001/REC-SVG-20010904/DTD/svg10.dtd">
<svg version="1.0" xmlns="http://www.w3.org/2000/svg"
 width="70.000000pt" height="70.000000pt" viewBox="0 0 70.000000 70.000000"
 preserveAspectRatio="xMidYMid meet">
<metadata>
Created by potrace 1.14, written by Peter Selinger 2001-2017
</metadata>
<g transform="translate(0.000000,70.000000) scale(0.100000,-0.100000)"
fill="#000000" stroke="none">
<path d="M307 693 c18 -2 50 -2 70 0 21 2 7 4 -32 4 -38 0 -55 -2 -38 -4z"/>
<path d="M305 635 c7 -52 21 -65 40 -39 14 18 14 18 15 -5 0 -35 21 -13 36 38
9 33 9 38 -2 34 -8 -3 -14 -11 -14 -18 0 -8 -5 -17 -12 -21 -6 -4 -8 -3 -5 2
3 6 1 16 -4 24 -8 13 -10 13 -19 0 -9 -13 -12 -12 -26 5 -15 19 -15 18 -9 -20z"/>
<path d="M175 650 c-3 -5 -1 -10 4 -10 6 0 11 5 11 10 0 6 -2 10 -4 10 -3 0
-8 -4 -11 -10z"/>
<path d="M433 649 c-6 -8 -15 -28 -19 -44 l-7 -30 22 20 c12 11 22 15 21 10
-5 -23 1 -34 21 -40 18 -6 19 -9 6 -23 -18 -21 -8 -50 16 -46 12 1 17 -2 13
-11 -3 -8 0 -13 7 -11 7 1 9 1 5 -1 -11 -6 -10 -23 1 -23 20 0 17 27 -6 55
-16 19 -23 23 -19 11 6 -16 4 -17 -9 -6 -12 10 -13 16 -3 27 8 10 14 11 16 4
2 -6 13 -11 24 -11 16 0 19 5 16 25 -4 20 -1 25 16 25 20 1 20 1 2 15 -22 17
-36 11 -36 -16 0 -22 -28 -26 -36 -5 -3 8 -1 24 5 35 6 11 7 22 2 25 -5 3 -12
-2 -16 -12 -6 -14 -9 -12 -19 12 -9 23 -14 26 -23 15z"/>
<path d="M190 625 c0 -5 9 -25 20 -43 18 -29 23 -32 36 -21 13 11 14 14 3 17
-8 3 -24 16 -36 31 -12 14 -22 22 -23 16z"/>
<path d="M135 580 c-3 -4 2 -25 11 -46 16 -37 17 -38 25 -16 5 12 15 22 23 22
31 0 24 18 -14 33 -22 8 -42 12 -45 7z"/>
<path d="M290 559 c0 -5 -3 -8 -7 -8 -26 4 -46 -5 -73 -31 -26 -26 -33 -50
-14 -50 3 0 2 5 -1 10 -3 6 -1 10 5 10 6 0 8 5 5 11 -4 6 -1 10 6 8 8 -1 21
-1 29 0 12 1 13 3 1 10 -9 6 -10 11 -2 15 6 4 11 1 11 -6 1 -8 6 -6 15 6 8 11
15 15 15 8 0 -6 -7 -17 -15 -24 -9 -7 -22 -19 -30 -26 -8 -7 -15 -10 -15 -5 0
4 -11 -11 -25 -35 -13 -24 -24 -46 -24 -50 1 -4 1 -14 0 -22 -1 -13 -3 -13
-10 0 -6 8 -7 18 -5 22 3 4 -2 8 -11 8 -9 0 -13 -5 -10 -10 11 -18 16 -61 8
-73 -9 -15 -12 -70 -2 -60 4 5 12 24 17 43 l10 35 1 -32 c1 -17 5 -34 10 -37
5 -3 7 -16 5 -29 -2 -12 -2 -16 2 -9 4 8 13 5 32 -13 15 -13 36 -31 46 -38 18
-14 18 -14 -2 -19 -15 -4 -19 -2 -15 9 4 11 2 14 -8 11 -8 -3 -29 8 -47 25
-23 22 -32 26 -32 15 0 -9 -12 -24 -27 -34 -16 -10 -34 -24 -42 -32 -11 -11
-15 -11 -22 0 -6 9 -9 9 -9 1 0 -14 77 -93 107 -110 53 -30 132 -53 182 -53
54 0 150 26 163 45 4 6 8 6 8 2 0 -10 18 5 78 63 39 37 44 45 28 48 -21 4 -35
15 -70 49 -17 17 -25 20 -34 11 -9 -9 -12 -9 -12 1 0 7 -5 9 -10 6 -6 -4 -8
-11 -4 -16 3 -5 2 -9 -3 -8 -19 3 -27 -2 -15 -10 11 -7 10 -9 -3 -14 -9 -4
-13 -3 -10 3 3 6 1 10 -4 10 -6 0 -11 -4 -11 -10 0 -5 -7 -10 -16 -10 -8 0
-13 -4 -10 -9 4 -5 -12 -7 -36 -4 -57 8 -61 13 -10 13 23 0 42 5 42 10 0 6 6
10 14 10 30 0 81 66 92 118 5 24 14 26 14 4 0 -12 5 -22 11 -22 5 0 8 -4 4
-10 -3 -5 -13 -6 -21 -3 -14 5 -15 3 -4 -18 l13 -23 8 22 c8 22 34 30 41 13 2
-5 19 -12 38 -16 l35 -7 -25 18 -24 18 23 6 c23 5 23 6 7 23 -15 14 -15 17 -2
17 8 0 18 5 22 11 4 7 -10 9 -45 7 -54 -5 -80 9 -65 34 14 21 13 38 -1 38 -8
0 -11 8 -8 23 4 20 3 20 -7 4 -9 -13 -9 -22 -2 -29 6 -6 9 -23 6 -37 -4 -21 0
-29 26 -44 33 -20 35 -40 5 -45 -10 -3 -15 0 -11 7 4 6 -2 21 -13 33 -18 19
-22 31 -21 63 1 23 -72 117 -94 122 -16 3 -19 13 -4 13 9 0 18 7 22 15 5 13 2
13 -19 -1 -13 -8 -34 -14 -47 -11 -20 3 -19 5 10 12 17 4 32 12 32 17 0 5 -9
7 -20 3 -39 -12 -71 -15 -83 -8 -18 11 -37 12 -37 2z m35 -18 c17 -7 17 -8 -8
-13 -19 -4 -27 -1 -27 8 0 15 6 16 35 5z m26 -61 c-5 -8 -7 -25 -6 -37 1 -12
-1 -22 -4 -21 -27 3 -40 -4 -35 -17 4 -8 0 -23 -7 -32 -13 -15 -12 -15 9 -4
12 6 22 9 22 6 0 -3 10 -1 21 6 18 9 24 8 31 -5 5 -9 14 -13 20 -10 7 5 8 2 3
-6 -5 -8 -3 -11 6 -8 15 5 39 -14 39 -30 0 -6 5 -12 12 -14 9 -3 7 -15 -6 -42
-11 -25 -23 -36 -32 -32 -9 3 -14 -1 -14 -14 0 -22 -16 -27 -23 -7 -3 6 -6 3
-7 -8 l-1 -20 -8 20 c-6 15 -3 22 11 27 11 4 17 12 14 16 -3 5 11 16 30 25 40
20 37 37 -6 34 -29 -2 -43 -17 -17 -17 7 -1 4 -6 -7 -15 -10 -7 -16 -17 -13
-22 3 -4 -8 -8 -24 -9 -17 -1 -29 4 -29 11 0 7 8 12 17 11 9 0 22 9 28 21 14
27 8 86 -8 76 -6 -4 -7 -1 -2 7 5 9 4 11 -3 6 -9 -5 -9 -13 -1 -27 13 -25 1
-41 -12 -16 -6 9 -21 17 -34 17 -32 0 -55 25 -55 61 0 32 36 76 58 71 8 -2 12
0 9 5 -3 5 3 9 13 9 13 0 16 -5 11 -16z m50 -10 c5 0 9 4 9 9 0 5 9 7 20 4 22
-6 22 -24 0 -31 -9 -3 -10 0 -4 9 6 11 5 12 -8 2 -8 -7 -18 -9 -22 -5 -4 4 -7
3 -6 -3 1 -5 2 -17 1 -25 -1 -13 -3 -13 -10 -1 -5 8 -7 20 -4 28 3 7 0 13 -7
13 -9 0 -9 4 1 17 13 15 14 15 17 0 2 -10 8 -17 13 -17z m39 -34 c0 -3 -4 -8
-10 -11 -5 -3 -10 -1 -10 4 0 6 5 11 10 11 6 0 10 -2 10 -4z m-99 -39 c-1 -12
-15 -9 -19 4 -3 6 1 10 8 8 6 -3 11 -8 11 -12z m-35 -134 c-10 -10 -19 5 -10
18 6 11 8 11 12 0 2 -7 1 -15 -2 -18z m2 -16 c6 3 12 0 12 -6 0 -6 -6 -11 -14
-11 -8 0 -17 -6 -19 -12 -3 -8 -6 -5 -6 6 -1 14 -4 16 -14 8 -10 -8 -13 -6
-13 7 0 15 5 17 21 11 11 -4 26 -5 33 -3z m42 -30 c0 -7 -9 -13 -19 -13 -15 0
-17 3 -9 13 6 7 14 13 19 13 5 0 9 -6 9 -13z m-30 -47 c8 -5 11 -10 5 -11 -5
0 -20 -2 -33 -5 -19 -3 -21 -2 -10 11 16 17 19 18 38 5z m20 -30 c0 -5 -2 -10
-4 -10 -3 0 -8 5 -11 10 -3 6 -1 10 4 10 6 0 11 -4 11 -10z m30 0 c0 -5 -2
-10 -4 -10 -3 0 -8 5 -11 10 -3 6 -1 10 4 10 6 0 11 -4 11 -10z m131 -33 c-10
-9 -11 -8 -5 6 3 10 9 15 12 12 3 -3 0 -11 -7 -18z m-174 -43 c-3 -3 -12 -4
-19 -1 -8 3 -5 6 6 6 11 1 17 -2 13 -5z"/>
<path d="M312 466 c-33 -19 -35 -23 -13 -29 13 -3 22 3 30 19 6 13 10 24 8 23
-1 -1 -12 -7 -25 -13z"/>
<path d="M275 390 c-3 -5 -1 -10 4 -10 6 0 11 5 11 10 0 6 -2 10 -4 10 -3 0
-8 -4 -11 -10z"/>
<path d="M407 329 c7 -7 15 -10 18 -7 3 3 -2 9 -12 12 -14 6 -15 5 -6 -5z"/>
<path d="M425 260 c-3 -5 -1 -10 4 -10 6 0 11 5 11 10 0 6 -2 10 -4 10 -3 0
-8 -4 -11 -10z"/>
<path d="M90 528 c0 -8 18 -24 40 -37 40 -22 52 -41 26 -41 -8 0 -16 6 -19 13
-3 8 -9 6 -19 -7 -20 -25 -53 -14 -45 14 7 26 -10 36 -18 11 -9 -30 12 -61 41
-61 13 0 27 6 30 14 3 8 12 12 21 9 12 -5 12 -7 1 -14 -7 -5 -8 -9 -3 -9 13 0
43 20 30 20 -5 0 -4 4 4 9 11 7 9 14 -12 35 -14 14 -29 26 -33 26 -4 0 -16 7
-26 17 -15 13 -18 14 -18 1z"/>
<path d="M583 504 c-37 -16 -44 -29 -12 -21 13 4 19 1 16 -6 -3 -7 -8 -20 -12
-29 -5 -11 -3 -18 5 -18 7 0 10 -8 7 -19 -2 -10 -1 -25 4 -32 6 -10 9 -10 9
-2 0 8 13 11 35 9 28 -2 35 1 35 16 0 14 -8 18 -37 18 l-38 1 30 25 c27 23 28
26 8 21 -23 -5 -30 3 -16 17 9 9 13 36 5 35 -4 0 -22 -7 -39 -15z"/>
<path d="M3 375 c0 -27 2 -38 4 -22 2 15 2 37 0 50 -2 12 -4 0 -4 -28z"/>
<path d="M52 394 c-28 -19 -28 -45 -1 -62 17 -11 25 -11 44 2 18 12 25 12 29
3 2 -6 4 -2 2 11 -2 18 -36 62 -48 62 -2 0 -14 -7 -26 -16z m38 -39 c-6 -7
-20 -11 -30 -8 -24 6 -24 7 -4 28 20 20 52 1 34 -20z"/>
<path d="M688 354 c-2 -25 0 -51 4 -57 4 -7 8 14 8 46 0 68 -7 75 -12 11z"/>
<path d="M77 300 c-9 -14 -20 -18 -32 -14 -15 6 -16 4 -5 -15 10 -19 14 -20
28 -9 9 7 20 18 24 23 5 6 8 5 8 -2 0 -7 5 -13 10 -13 15 0 12 26 -4 39 -11 9
-17 8 -29 -9z"/>
<path d="M156 271 c-4 -7 -5 -15 -2 -18 9 -9 19 4 14 18 -4 11 -6 11 -12 0z"/>
<path d="M510 240 c0 -5 5 -10 10 -10 6 0 10 5 10 10 0 6 -4 10 -10 10 -5 0
-10 -4 -10 -10z"/>
<path d="M204 211 c20 -22 26 -25 26 -13 0 4 -10 13 -22 21 -23 14 -23 14 -4
-8z"/>
</g>
</svg>
